<?xml version="1.0" encoding="UTF-8"?>
<!DOCTYPE svg PUBLIC "-//W3C//DTD SVG 1.1//EN" "http://www.w3.org/Graphics/SVG/1.1/DTD/svg11.dtd">
<svg xmlns="http://www.w3.org/2000/svg" version="1.1" width="360px" height="112px" style="shape-rendering:geometricPrecision; text-rendering:geometricPrecision; image-rendering:optimizeQuality; fill-rule:evenodd; clip-rule:evenodd" xmlns:xlink="http://www.w3.org/1999/xlink">
<g><path style="opacity:0.984" fill="#2568ed" d="M 127.5,-0.5 C 128.167,-0.5 128.833,-0.5 129.5,-0.5C 137.729,6.79009 142.395,15.9568 143.5,27C 142.558,35.937 137.892,41.937 129.5,45C 102.928,45.1714 76.4279,45.6714 50,46.5C 49.1756,63.0741 49.3423,79.5741 50.5,96C 53.4294,96.7772 56.2628,96.6105 59,95.5C 59.3333,91.5 59.6667,87.5 60,83.5C 60.6898,80.804 62.1898,78.6374 64.5,77C 70.0829,76.8089 75.5829,76.3089 81,75.5C 81.3333,71.5 81.6667,67.5 82,63.5C 83.1217,61.3762 84.6217,59.5429 86.5,58C 99.5128,57.1673 112.513,57.334 125.5,58.5C 118.58,67.922 109.247,72.5886 97.5,72.5C 99.5669,89.4239 92.2336,95.7573 75.5,91.5C 75.6658,96.1785 75.4992,100.845 75,105.5C 74.1959,108.146 72.6959,110.146 70.5,111.5C 61.1667,111.5 51.8333,111.5 42.5,111.5C 37.7787,109.434 34.9453,105.767 34,100.5C 33.3333,81.8333 33.3333,63.1667 34,44.5C 36.277,36.5557 41.4437,31.7224 49.5,30C 74.1667,29.6667 98.8333,29.3333 123.5,29C 128.861,26.3051 131.861,21.9718 132.5,16C 131.73,10.1923 130.063,4.69229 127.5,-0.5 Z"/></g>
<g><path style="opacity:0.966" fill="#2568ed" d="M 12.5,-0.5 C 13.1667,-0.5 13.8333,-0.5 14.5,-0.5C 12.3239,4.86039 10.6572,10.3604 9.5,16C 9.83359,19.987 11.5003,23.3203 14.5,26C 18.6692,27.9594 23.0025,29.4594 27.5,30.5C 23.6439,34.735 21.9772,39.735 22.5,45.5C 11.8254,46.9982 4.15877,42.9982 -0.5,33.5C -0.5,28.8333 -0.5,24.1667 -0.5,19.5C 2.16307,11.8197 6.49641,5.15302 12.5,-0.5 Z"/></g>
<g><path style="opacity:0.996" fill="#14171f" d="M 326.5,41.5 C 335.318,42.4933 344.318,42.8266 353.5,42.5C 353.5,46.1667 353.5,49.8333 353.5,53.5C 344.318,53.1734 335.318,53.5067 326.5,54.5C 326.5,59.5 326.5,64.5 326.5,69.5C 337.5,69.5 348.5,69.5 359.5,69.5C 359.5,73.8333 359.5,78.1667 359.5,82.5C 348.5,82.5 337.5,82.5 326.5,82.5C 326.5,92.1667 326.5,101.833 326.5,111.5C 321.833,111.5 317.167,111.5 312.5,111.5C 312.5,101.833 312.5,92.1667 312.5,82.5C 300.833,82.5 289.167,82.5 277.5,82.5C 277.5,78.1667 277.5,73.8333 277.5,69.5C 289.167,69.5 300.833,69.5 312.5,69.5C 312.5,64.5 312.5,59.5 312.5,54.5C 307.156,54.334 301.823,54.5006 296.5,55C 294.154,59.8907 290.988,64.0573 287,67.5C 283.23,65.365 279.396,63.365 275.5,61.5C 283.641,51.8846 289.141,40.8846 292,28.5C 296.334,29.3972 300.501,30.7305 304.5,32.5C 303.727,35.4308 302.727,38.2641 301.5,41C 305.152,41.4986 308.818,41.6653 312.5,41.5C 312.5,36.8333 312.5,32.1667 312.5,27.5C 317.167,27.5 321.833,27.5 326.5,27.5C 326.5,32.1667 326.5,36.8333 326.5,41.5 Z"/></g>
<g><path style="opacity:0.558" fill="#13161f" d="M 240.5,46.5 C 239.514,42.03 239.181,37.3633 239.5,32.5C 221.167,32.5 202.833,32.5 184.5,32.5C 184.5,36.5 184.5,40.5 184.5,44.5C 183.515,40.3656 183.182,36.0323 183.5,31.5C 202.5,31.5 221.5,31.5 240.5,31.5C 240.5,36.5 240.5,41.5 240.5,46.5 Z"/></g>
<g><path style="opacity:0.988" fill="#14171f" d="M 240.5,46.5 C 240.343,47.8734 240.51,49.2068 241,50.5C 245.401,46.0217 249.568,41.355 253.5,36.5C 257.457,38.4726 261.124,40.8059 264.5,43.5C 259.316,49.5174 253.65,55.0174 247.5,60C 253.669,63.5838 259.669,67.4171 265.5,71.5C 263.539,75.258 261.205,78.758 258.5,82C 261.042,84.7112 263.709,87.2112 266.5,89.5C 265.899,95.9116 264.066,101.912 261,107.5C 252.801,111.056 245.468,109.723 239,103.5C 232.891,93.7416 229.558,83.0749 229,71.5C 228.035,62.5234 227.535,53.5234 227.5,44.5C 213.167,44.5 198.833,44.5 184.5,44.5C 184.5,40.5 184.5,36.5 184.5,32.5C 202.833,32.5 221.167,32.5 239.5,32.5C 239.181,37.3633 239.514,42.03 240.5,46.5 Z M 242.5,71.5 C 247.527,73.6834 252.193,76.5168 256.5,80C 255.643,85.4358 254.976,90.9358 254.5,96.5C 251.386,95.9087 248.886,94.242 247,91.5C 244.236,85.1126 242.736,78.4459 242.5,71.5 Z"/></g>
<g><path style="opacity:0.617" fill="#121820" d="M 326.5,41.5 C 335.833,41.5 345.167,41.5 354.5,41.5C 354.5,45.8333 354.5,50.1667 354.5,54.5C 345.167,54.5 335.833,54.5 326.5,54.5C 335.318,53.5067 344.318,53.1734 353.5,53.5C 353.5,49.8333 353.5,46.1667 353.5,42.5C 344.318,42.8266 335.318,42.4933 326.5,41.5 Z"/></g>
</svg>
