<?xml version="1.0" encoding="UTF-8"?>
<svg xmlns="http://www.w3.org/2000/svg" xmlns:xlink="http://www.w3.org/1999/xlink" width="251px" height="200px" viewBox="0 0 62 50" version="1.1">
<g id="surface1">
<path style=" stroke:none;fill-rule:nonzero;fill:rgb(0%,0%,0%);fill-opacity:1;" d="M 55.601562 0 C 55.601562 0 58.625 6.027344 57.242188 9.539062 C 56.53125 11.335938 54.472656 13.480469 52.21875 13.480469 L 22.695312 13.480469 C 18.449219 13.480469 15.011719 16.960938 15.011719 21.257812 L 15.011719 43.136719 C 15.007812 46.398438 17.625 49.046875 20.847656 49.046875 L 28.886719 49.046875 C 30.980469 49.046875 32.675781 47.328125 32.675781 45.210938 L 32.675781 40.171875 L 38.226562 40.171875 C 40.316406 40.171875 42.015625 38.457031 42.015625 36.335938 L 42.015625 31.9375 C 46.777344 31.9375 51.265625 29.695312 54.167969 25.878906 L 54.445312 25.507812 L 39.453125 25.507812 C 37.359375 25.507812 35.660156 27.226562 35.660156 29.347656 L 35.660156 32.914062 C 35.660156 33.371094 35.292969 33.742188 34.839844 33.742188 L 30.117188 33.742188 C 28.023438 33.742188 26.324219 35.460938 26.324219 37.578125 L 26.324219 41.125 C 26.324219 41.949219 25.664062 42.617188 24.851562 42.617188 L 22.835938 42.617188 C 22.445312 42.617188 22.070312 42.460938 21.792969 42.183594 C 21.515625 41.902344 21.359375 41.523438 21.359375 41.125 L 21.359375 21.257812 C 21.359375 20.511719 21.957031 19.910156 22.691406 19.910156 L 54.269531 19.910156 C 58.511719 19.910156 61.953125 16.425781 61.953125 12.132812 C 61.953125 8.230469 60.351562 4.5 57.535156 1.835938 Z M 4.714844 9.570312 C 3.328125 6.058594 6.351562 0.0273438 6.351562 0.0273438 L 4.414062 1.863281 C 1.597656 4.53125 0 8.257812 0 12.160156 C 0 16.457031 3.441406 19.9375 7.683594 19.9375 L 9.5625 19.9375 L 9.5625 19.910156 C 9.5625 17.417969 10.484375 15.148438 12 13.425781 C 7.003906 13.011719 5.339844 11.15625 4.714844 9.570312 Z M 4.714844 9.570312 "/>
</g>
</svg>
