<?xml version="1.0" standalone="no"?><!DOCTYPE svg PUBLIC "-//W3C//DTD SVG 1.1//EN" "http://www.w3.org/Graphics/SVG/1.1/DTD/svg11.dtd"><svg t="1755423151061" class="icon" viewBox="0 0 1024 1024" version="1.1" xmlns="http://www.w3.org/2000/svg" p-id="9187" xmlns:xlink="http://www.w3.org/1999/xlink" width="200" height="200"><path d="M489.318417 2.73339c19.333193 0.036938 38.662692 0.014775 57.99219-0.02955C861.849907 2.120224 861.849907 2.120224 948.398634 81.262942c80.029223 81.214923 75.057409 210.304801 74.857945 315.917076l0.018469 27.987696c0.014775 21.915138-0.011081 43.826582-0.051713 65.741721-0.025856 17.323782-0.018469 34.654951 0.014775 51.978733 0.040631 24.153563 0.048019 48.303432 0.025857 72.4533-0.007388 9.105143 0 18.210287 0.018469 27.311736 0.343521 230.908651 0.343521 230.908651-73.727652 306.571838-69.701442 60.873331-153.372722 74.455324-243.548732 74.543974l-13.829475 0.055407c-12.444311 0.044325-24.884929 0.073875-37.329241 0.08865l-23.448052 0.044326c-24.574653 0.048019-49.152999 0.084957-73.727652 0.099731-28.139141 0.014775-56.278281 0.081263-84.417422 0.184689-21.892975 0.084957-43.785951 0.121894-65.68262 0.125588-13.005765 0.003694-26.011529 0.025856-39.017293 0.092344C176.914116 1025.390581 176.914116 1025.390581 98.83151 967.767768l-7.202852-5.15281C37.2933 920.243722 16.899995 851.849874 7.94999 786.392574 1.803557 735.429628 1.714906 684.65137 1.814638 633.381841l-0.022163-27.987696c-0.014775-21.915138 0.011081-43.826582 0.051713-65.74172 0.025856-17.323782 0.018469-34.654951-0.014775-51.978733-0.040631-24.153563-0.048019-48.303432-0.025856-72.453301 0.007388-9.105143 0-18.210287-0.018469-27.311736-0.343521-230.908651-0.343521-230.908651 73.727651-306.571837C186.299986-15.417796 351.681155 2.426807 489.318417 2.73339z" fill="#3C7BF7" p-id="9188"></path><path d="M756.322589 288.114068c27.215698 21.228097 49.651658 46.153657 55.406551 81.262943 2.467438 24.896011 4.366036 48.255413-8.772704 70.414339-15.75393 18.561195-33.243931 30.61766-57.899846 34.071336-22.343615 1.824722-44.738944 1.603096-67.141659 1.551383-7.232402 0.048019-14.468498 0.103426-21.704594 0.169913-18.934266 0.147751-37.864837 0.184689-56.799102 0.199464-22.775786 0.036938-45.551573 0.217932-68.32736 0.369377-34.499813 0.221626-68.999626 0.265951-103.506826 0.343521v206.851126h36.937701c7.705204-7.705204 4.609825-27.075335 4.631988-37.960876 0.53929-14.483273 2.34185-20.640787 11.701864-31.932642 16.127-13.002071 28.763388-11.812677 48.768846-11.598438l8.975862 0.048019c7.317359 0.044325 14.638411 0.110813 21.959463 0.180994l-0.387846-10.663914-0.306583-14.036326-0.387846-13.895964c1.15615-14.025245 3.638364-20.559524 12.163585-31.585428 11.41375-7.609166 13.703887-8.303595 26.58037-8.226026h9.408033l10.109848 0.118201 10.390576 0.02955c10.952028 0.040631 21.904057 0.136669 32.852391 0.229014 7.424478 0.036938 14.848956 0.073875 22.273434 0.099732 18.202899 0.081263 36.402104 0.210545 54.605003 0.361989-12.200523 25.656927-34.891352 41.931678-60.873331 52.536492-17.50847 5.400292-35.497131 7.926831-53.633542 10.2576l-0.158832 11.469156c-0.173607 5.027221-0.350908 10.054442-0.535597 15.07797l-0.062794 7.542678c-0.635328 14.501741-2.530233 20.825476-11.89394 32.124719-16.123307 12.987296-28.767082 11.797902-48.757765 11.583663l-8.975862-0.048019c-7.317359-0.044325-14.638411-0.110813-21.959463-0.180995l0.650104 12.152504c0.173607 5.333804 0.339827 10.674996 0.502352 16.012493l0.469109 7.978544c0.343521 14.956075-0.856955 23.931937-10.468144 35.740919-19.074629 18.590745-40.494802 13.888576-65.952265 13.995695l-13.751907 0.229014-13.316041 0.0591-12.167278 0.103426c-15.683748-1.784091-28.091122-7.265646-39.792986-17.936948-13.552443-17.408739-16.54809-28.449417-16.740166-50.194642l-0.144057-14.051101a14944.033469 14944.033469 0 0 1-0.081263-15.214639l-0.048019-7.756918c-0.073875-13.567218-0.129282-27.134435-0.162526-40.701653-0.040631-13.955063-0.169913-27.910127-0.31397-41.86519-0.099732-10.778421-0.129282-21.553149-0.140364-32.33157a1556.831755 1556.831755 0 0 0-0.129282-15.42149c-0.428477-33.871872 0.594697-58.380037 23.965181-84.528235l7.487272-6.131658 7.520516-6.334816c14.922831-10.575264 30.388647-9.234425 47.893423-9.256588l9.197488-0.055406c6.585992-0.036938 13.179372-0.073875 19.769057-0.096038 10.434901-0.044325 20.866107-0.114507 31.297314-0.19577 29.664668-0.229014 59.329335-0.428477 88.994004-0.554066a11343.198618 11343.198618 0 0 0 54.427702-0.369377 3531.613598 3531.613598 0 0 1 20.736825-0.096038c9.677678-0.018469 19.344274-0.103426 29.018258-0.203157l8.643422 0.033244c16.806654-0.258564 26.838934-3.039973 40.568677-12.654857h7.387541l3.461062-8.772704C763.710129 376.764551 763.710129 376.764551 767.403899 369.377011c2.641046-28.800326-2.205181-53.947512-11.08131-81.262943z" fill="#FAFCFE" p-id="9189"></path><path d="M489.318417 2.73339c19.333193 0.036938 38.662692 0.014775 57.99219-0.02955C861.849907 2.120224 861.849907 2.120224 948.398634 81.262942c80.029223 81.214923 75.057409 210.304801 74.857945 315.917076l0.018469 27.987696c0.014775 21.915138-0.011081 43.826582-0.051713 65.741721-0.025856 17.323782-0.018469 34.654951 0.014775 51.978733 0.040631 24.153563 0.048019 48.303432 0.025857 72.4533-0.007388 9.105143 0 18.210287 0.018469 27.311736 0.343521 230.908651 0.343521 230.908651-73.727652 306.571838-69.701442 60.873331-153.372722 74.455324-243.548732 74.543974l-13.829475 0.055407c-12.444311 0.044325-24.884929 0.073875-37.329241 0.08865l-23.448052 0.044326c-24.574653 0.048019-49.152999 0.084957-73.727652 0.099731-28.139141 0.014775-56.278281 0.081263-84.417422 0.184689-21.892975 0.084957-43.785951 0.121894-65.68262 0.125588-13.005765 0.003694-26.011529 0.025856-39.017293 0.092344C176.914116 1025.390581 176.914116 1025.390581 98.83151 967.767768l-7.202852-5.15281C37.2933 920.243722 16.899995 851.849874 7.94999 786.392574 1.803557 735.429628 1.714906 684.65137 1.814638 633.381841l-0.022163-27.987696c-0.014775-21.915138 0.011081-43.826582 0.051713-65.74172 0.025856-17.323782 0.018469-34.654951-0.014775-51.978733-0.040631-24.153563-0.048019-48.303432-0.025856-72.453301 0.007388-9.105143 0-18.210287-0.018469-27.311736-0.343521-230.908651-0.343521-230.908651 73.727651-306.571837C186.299986-15.417796 351.681155 2.426807 489.318417 2.73339zM341.32013 17.67469c-14.29489 0.757223-28.515905 0.904974-42.829265 0.73506C230.148731 18.912103 152.0809 31.433984 102.52528 81.262942c-3.75287 3.582957-7.509435 7.16222-11.265999 10.734096-4.026209 3.878459-8.041338 7.767999-12.049078 11.661232l-5.78075 5.533268C55.909901 126.567033 47.635856 145.146696 39.502174 168.06654l-3.594038 10.043361L32.343648 188.382275l-4.011434 10.878153c-3.557101 11.89394-4.750188 22.458122-5.452005 34.832252-0.997318 15.465815-2.378788 30.687842-4.384505 46.061314-5.385517 46.20537-5.282091 92.503085-5.370742 138.944856l-0.033244 11.387893c-0.055407 19.942665-0.08865 39.88533-0.103425 59.827995-0.018469 16.215651-0.066488 32.431302-0.151445 48.650646C7.97954 715.269031 7.97954 715.269031 43.424958 886.504825l7.38754 7.387541a870.082324 870.082324 0 0 1 7.387541 15.236801c11.328793 20.991696 28.18716 34.677114 48.019011 47.55729h7.38754v7.387541h11.081311v7.38754c60.670174 32.604909 135.886415 41.780234 203.896109 40.646246 12.79522-0.014775 25.379894 0.528209 38.141871 1.29282 96.056492 5.677325 192.700293 2.89961 288.81219 0.007387l8.562159-0.258564c7.601779-0.232708 15.203558-0.472803 22.805337-0.716591 9.914079-0.240095 19.769058-0.343521 29.683137-0.288114 12.145116-0.044325 23.654904-1.019481 35.66335-2.73339a260.085741 260.085741 0 0 1 15.757623-1.558771c71.585265-5.030915 135.387756-31.075688 184.082727-84.410035 41.237249-50.93709 57.353168-126.031436 55.199701-190.849713 0.206851-8.613872 0.206851-8.613872 2.035267-19.787527 2.496989-17.120624 2.382482-34.111967 2.34185-51.380342l0.022163-10.896622c0.014775-11.845921 0.003694-23.688148-0.007388-35.530374a39826.447215 39826.447215 0 0 0-0.007387-76.956007c-0.022163-22.136764-0.011081-44.269835 0.011081-66.402905 0.014775-17.124318 0.007388-34.244943 0-51.369261 0-8.152151 0-16.304301 0.007388-24.460146 0.048019-58.705088-1.66589-115.674105-11.35465-173.721701l-1.894904-11.890246c-3.449981-21.128365-7.55376-41.769152-13.10919-62.446878h-7.38754l-3.003035-10.848603L970.561255 125.588184l-11.08131-3.693771c-2.541314-7.616554-2.541314-7.616554-3.693771-14.77508h-7.38754l-2.770327-6.464098c-5.293173-9.529927-11.206899-15.923843-19.392293-23.086063h-7.387541v-7.38754h-7.38754v-7.38754l-36.937701-18.468851v-3.69377c-83.977863-17.087381-83.977863-17.087381-169.226384-22.16262-11.070229 0-22.01487-0.554066-33.055548-1.270657-47.590534-3.039973-95.166293-2.984566-142.83809-2.903304-14.26534 0.018469-28.534374 0-42.803408-0.025856-48.51767-0.011081-96.835877 0.742448-145.279672 3.40935z" fill="#5382DF" p-id="9190"></path><path d="M489.318417 2.73339c19.333193 0.036938 38.662692 0.014775 57.99219-0.02955C861.849907 2.120224 861.849907 2.120224 948.398634 81.262942c80.029223 81.214923 75.057409 210.304801 74.857945 315.917076l0.018469 27.987696c0.014775 21.915138-0.011081 43.826582-0.051713 65.741721-0.025856 17.323782-0.018469 34.654951 0.014775 51.978733 0.040631 24.153563 0.048019 48.303432 0.025857 72.4533-0.007388 9.105143 0 18.210287 0.018469 27.311736 0.096038 65.749108-0.771998 131.498216-15.78348 195.83261h-3.69377c0.221626-2.434194 0.443252-4.864695 0.664878-7.372765 5.799219-65.841452 7.756917-131.121451 7.472497-197.199305-0.048019-12.880176-0.051713-25.760353-0.0591-38.640529-0.022163-24.212663-0.084957-48.425326-0.158832-72.634295-0.084957-27.640482-0.121894-55.280963-0.158832-82.921445-0.077569-56.691984-0.206851-113.380273-0.373071-170.072257h-7.38754c-2.393563-14.77508-4.776045-29.550161-7.158527-44.325242l-2.038961-12.595756c-3.479531-21.627024-6.737437-43.21711-9.271363-64.973416h-7.38754l-5.078934-10.848603c-4.739107-11.576276-4.739107-11.576276-13.389916-15.007788l-3.693771-11.08131a233.826729 233.826729 0 0 0-28.859425-26.547126L918.848473 77.569172v-7.38754h-7.38754v-7.38754l-5.773363-1.152456C887.868823 56.614414 873.91376 52.643612 863.441922 36.937701c-10.202193-3.542326-10.202193-3.542326-22.162621-5.769669l-13.112884-2.759246L815.42291 25.856391l-10.083992-2.208875c-36.150928-7.756917-71.843829-9.430195-108.740898-9.467133l-13.157209-0.055406c-14.280115-0.055407-28.556537-0.081263-42.836652-0.099732l-14.904363-0.033244c-23.377871-0.048019-46.755742-0.084957-70.137306-0.099732-26.731814-0.014775-53.467322-0.081263-80.199137-0.184688-20.825476-0.084957-41.650952-0.121894-62.476427-0.125588a7927.791028 7927.791028 0 0 1-37.078065-0.092345C228.316621 11.432218 228.316621 11.432218 98.83151 73.875402l-9.770022 8.554772C67.88141 102.250944 54.598613 121.144578 43.424958 147.750804l-3.981884 7.893587C17.007114 200.930012 14.668958 253.348304 10.181027 302.889149H6.487257C2.989257 228.411662 19.36374 148.711184 67.663478 90.035646 170.498037-19.052466 352.711717 2.430501 489.318417 2.729696z" fill="#557FD4" p-id="9191"></path><path d="M1007.498956 269.645218h3.69377c5.053078 46.807455 4.36973 93.784823 4.443605 140.795435l0.033244 13.511811c0.055407 23.65121 0.08865 47.30242 0.103426 70.95363 0.018469 19.31103 0.066488 38.625754 0.151444 57.936784 0.790467 184.836256 0.790467 184.836256-5.481554 253.813719l-1.119213 12.928195c-6.48626 58.051291-37.133471 111.274824-81.473487 149.106418-19.118954 13.940288-41.503201 17.257294-64.408269 21.239178v7.387541c-6.382835 1.252188-12.773057 2.474826-19.16328 3.69377l-10.774727 2.079592c-9.928854 1.499671-19.14481 1.905985-29.162315 1.614178v7.38754l-9.308301 0.679654-12.163585 0.934524-12.074934 0.912361c-11.000047 0.805242-11.000047 0.805242-21.859732 4.861001-5.972826 0.347214-11.960428 0.48019-17.944335 0.494965l-11.210592 0.048019-12.300254-0.007387-12.965134 0.036938c-14.213627 0.036938-28.427255 0.044325-42.640882 0.048019l-22.214333 0.025856c-23.344627 0.033244-46.689254 0.040631-70.033881 0.036938-23.90608 0-47.808466 0.036938-71.714547 0.096038-20.626012 0.048019-41.252025 0.066488-61.878037 0.066488-12.270704 0-24.537715 0.011081-36.808419 0.048019-75.223628 0.199464-147.924411-0.494965-220.211492-23.056513v-7.387541c45.987438 6.68203 45.987438 6.68203 65.102698 11.314018 31.049832 7.154833 62.099663 7.313665 93.814373 7.040326 13.013152 0.099732 25.856391 0.657491 38.836299 1.429489 96.052798 5.614531 192.667049 2.892222 288.771559 0l8.562159-0.258564c7.601779-0.232708 15.203558-0.472803 22.805337-0.716591 9.914079-0.240095 19.769058-0.343521 29.683137-0.288114 12.145116-0.044325 23.654904-1.019481 35.66335-2.73339a260.085741 260.085741 0 0 1 15.757623-1.558771C836.935427 999.312564 901.266128 975.476666 948.398634 923.442526c41.141211-51.13286 57.356862-125.909542 55.199701-190.849713 0.206851-8.613872 0.206851-8.613872 2.038961-19.440312 2.774021-19.037691 2.345544-38.097545 2.28275-57.297762v-12.677019c0-13.770375-0.02955-27.54075-0.059101-41.311125l-0.018468-28.707981c-0.011081-22.576323-0.036938-45.15634-0.07757-67.736357-0.040631-25.716027-0.062794-51.435749-0.081263-77.151776-0.036938-52.876319-0.103426-105.752638-0.184688-158.625263z" fill="#5A89E5" p-id="9192"></path><path d="M272.438705 284.420298l3.69377 7.38754a295.468365 295.468365 0 0 1-7.158527 18.701558c-9.086674 24.112931-11.395281 42.655657-3.922783 67.411305 15.957087 21.438642 41.399775 26.713345 66.487861 32.087781l-3.911702 7.169608C317.702164 436.049561 310.768957 451.463664 309.376406 472.802574c-24.330864 2.02788-42.681514-0.251176-62.794092-14.775081-14.885894-14.224709-28.113284-29.395023-30.791268-50.342393-0.598391-44.916244 13.223697-78.082606 43.704688-110.713371A483.122967 483.122967 0 0 1 272.438705 284.420298z" fill="#FAFCFE" p-id="9193"></path><path d="M489.318417 2.73339c19.333193 0.036938 38.662692 0.014775 57.99219-0.02955 306.438862-0.568841 306.438862-0.568841 362.015327 49.718145L915.154703 59.100322c-7.247177-1.562465-14.479579-3.191417-21.700899-4.846227l-12.20791-2.729696C870.829462 48.019011 870.829462 48.019011 863.441922 36.937701c-10.202193-3.542326-10.202193-3.542326-22.162621-5.769669l-13.112884-2.759246L815.42291 25.856391l-10.083992-2.208875c-36.150928-7.756917-71.843829-9.430195-108.740898-9.467133l-13.157209-0.055406c-14.280115-0.055407-28.556537-0.081263-42.836652-0.099732l-14.904363-0.033244c-23.377871-0.048019-46.755742-0.084957-70.137306-0.099732-26.731814-0.014775-53.467322-0.081263-80.199137-0.184688-20.825476-0.084957-41.650952-0.121894-62.476427-0.125588a7927.791028 7927.791028 0 0 1-37.078065-0.092345C228.316621 11.432218 228.316621 11.432218 98.83151 73.875402l-9.770022 8.554772C67.88141 102.250944 54.598613 121.144578 43.424958 147.750804l-3.981884 7.893587C17.007114 200.930012 14.668958 253.348304 10.181027 302.889149H6.487257C2.989257 228.411662 19.36374 148.711184 67.663478 90.035646 170.498037-19.052466 352.711717 2.430501 489.318417 2.729696z" fill="#4F7ACE" p-id="9194"></path><path d="M69.281349 934.523837c7.158526 3.003035 7.158526 3.003035 14.77508 7.38754l3.69377 11.08131c6.833475 3.878459 6.833475 3.878459 14.775081 7.387541l7.158526 5.540655c8.325758 6.057783 16.433583 9.441276 26.085405 12.928195v7.38754l33.243931 3.69377v7.387541l13.160903 1.385163c9.862366 1.037949 18.343262 2.910691 27.880576 5.839851 61.37199 17.659915 130.585855 12.281786 193.642205 12.093403 9.973179-0.007388 19.946359-0.003694 29.915844 0 20.725744-0.007388 41.455182-0.036938 62.180926-0.08865a28086.319755 28086.319755 0 0 1 71.825359-0.073876c23.167326 0 46.330958-0.018469 69.498285-0.048019 9.814347-0.011081 19.632388-0.018469 29.446735-0.022162 13.641093-0.007388 27.278492-0.040631 40.919585-0.081263l12.296561 0.007387 11.210592-0.048019 9.751553-0.018469c8.839192-0.155138 8.839192-0.155138 19.274093-4.170266 7.61286-0.25487 15.236802-0.31397 22.857049-0.232707l12.159891 0.103425L804.3416 1012.093009v-7.38754l59.100322-7.38754v-7.387541c4.676313-1.965086 9.374789-3.878459 14.084345-5.773362l7.919443-3.24313C892.992083 978.849078 892.992083 978.849078 904.073393 982.542848c-77.100063 44.266141-165.757934 41.813478-251.848633 41.74699-10.394269-0.007388-20.792232 0.011081-31.190195 0.02955-24.585734 0.040631-49.175161 0.044325-73.764589 0.022163-25.128718-0.022163-50.26113 0.022163-75.393542 0.099732-21.785856 0.066488-43.571712 0.08865-65.357568 0.073875-12.917114-0.003694-25.837922 0.003694-38.755036 0.055406-106.110934 0.39154-213.510993-1.218944-294.788711-78.965417l-3.69377-11.08131z" fill="#547ED0" p-id="9195"></path><path d="M996.417646 838.485814h7.38754c-1.909679 20.72205-7.402315 36.47598-16.854673 54.94483l-3.989272 7.849262c-17.453064 33.133118-40.609309 56.618108-71.500308 77.569172l-7.38754-3.69377c12.259623-17.737484 22.070276-29.494754 40.631471-40.631471 23.714004-25.90441 47.69396-60.869638 51.712782-96.038023z" fill="#5881D3" p-id="9196"></path><path d="M892.992083 51.712781c5.322723 1.573546 10.63067 3.198805 15.93123 4.849921l8.957393 2.726002c8.901986 3.734402 13.596768 6.933206 19.436618 14.586698v11.08131l11.08131 3.693771c7.41709 8.599097 7.41709 8.599097 15.236802 19.392293l7.878812 10.674995c6.190759 10.165255 8.717297 17.334863 10.128317 29.033033l-4.84992-6.696805c-5.854626-7.997012-5.854626-7.997012-12.233767-13.851638C959.479945 121.894413 959.479945 121.894413 955.786174 110.813103a233.826729 233.826729 0 0 0-28.859425-26.550819L918.848473 77.569172v-7.38754h-7.38754v-7.38754l-7.158526-1.385164L896.685853 59.100322l-3.69377-7.387541z" fill="#5B86DC" p-id="9197"></path><path d="M24.956108 816.323193c8.045031 12.067547 10.397963 21.253953 13.622624 35.323524l3.043666 12.939277C43.424958 875.423515 43.424958 875.423515 39.731188 882.811055c-13.36406-20.914126-13.630012-42.116367-14.77508-66.487862z" fill="#5A87E2" p-id="9198"></path><path d="M272.438705 284.420298l3.69377 7.38754c-3.464756 9.696147-3.464756 9.696147-7.38754 18.468851h-11.081311c-8.015481 5.319029-8.015481 5.319029-14.77508 11.08131 6.094721-15.853661 17.501083-25.413138 29.550161-36.937701z" fill="#DAE6FD" p-id="9199"></path></svg>