<svg version="1.1" xmlns="http://www.w3.org/2000/svg" style="display: block;" viewBox="0 0 2048 2048" width="1000" height="1000">
<path transform="translate(0,0)" fill="rgb(222,189,166)" d="M 824.078 0 L 825.622 0 L 825.649 0.909024 C 855.401 7.60511 884.759 17.6485 914.044 26.1724 C 931.356 31.2114 954.821 36.0801 970.83 43.1823 C 985.774 47.0836 1022.1 55.2216 1033.8 62.0798 C 1042.96 67.4509 1106.82 155.43 1117.76 170.965 C 1119.62 173.592 1120.94 176.167 1121.72 179.313 C 1123.49 186.396 1124.21 193.951 1125.49 201.147 L 1134.96 256.61 C 1140.73 291.373 1147.61 326.018 1153.06 360.828 C 1154.84 372.196 1159.4 409.989 1162.99 418.201 C 1192.88 430.195 1222.69 442.382 1252.43 454.76 C 1267.21 460.857 1284.35 466.226 1298.08 474.336 C 1296.5 488.501 1283.94 518.447 1278.92 532.945 C 1270.19 558.174 1262.48 584.543 1252.3 609.18 C 1263.56 618.01 1328.48 668.905 1332.71 675.72 C 1317.77 708.95 1302.41 742.358 1286.07 774.921 C 1255.67 769.161 1226.52 755.543 1196 750.726 C 1199.52 779.112 1205.12 807.674 1210.08 835.856 C 1211.99 846.716 1212.6 858.641 1215.57 869.204 L 1231.95 965.516 C 1234.8 982.416 1237.2 999.389 1240.82 1016.15 C 1232.23 1037.96 1178.85 1184.18 1173.98 1189.16 L 1173.29 1189.37 C 1161.91 1191.77 1150.23 1192.98 1138.69 1194.51 C 1122.9 1197.33 1106.89 1199.25 1091.14 1202.26 C 1091.85 1208.67 1094.11 1235.8 1098.34 1239.31 C 1098.48 1239.43 1098.64 1239.53 1098.79 1239.63 C 1098.14 1240.03 1097.28 1240.2 1096.83 1240.82 C 1094.31 1244.29 1085.91 1281.8 1083.56 1289.41 C 1077.09 1284.8 1060.59 1260.58 1054.34 1252.44 L 980.941 1157.51 C 968.27 1141.07 956.323 1122.92 942.161 1107.8 C 925.514 1096.03 907.759 1085.43 890.592 1074.4 C 864.129 1057.15 837.517 1040.13 810.759 1023.33 C 790.961 1011 771.916 996.361 751.292 985.535 L 750.163 984.55 C 743.945 978.028 700.647 950.953 691.257 946.197 L 689.83 945.304 L 607.935 892.528 C 591.925 882.175 575.286 869.549 557.974 861.562 L 557.91 860.92 C 546.448 851.383 516.951 833.144 509.258 824.384 C 513.337 811.4 518.77 798.627 523.632 785.91 C 530.215 768.692 536.541 751.303 543.71 734.324 C 535.356 725.973 486.432 671.396 483.07 662.893 C 490.454 644.799 503.122 626.689 512.927 609.712 C 532.482 575.402 552.313 541.251 572.421 507.262 C 572.634 500.878 560.834 472.398 558.02 464.967 C 573.359 458.409 589.344 453.121 604.98 447.292 C 595.856 426.767 589.814 400.808 582.992 379.113 C 567.116 328.621 551.8 277.852 534.987 227.668 C 560.939 206.37 587.613 185.87 613.896 164.974 C 638.677 145.272 663.162 125.046 688.482 106.047 C 705.001 90.3681 725.353 76.7515 743.317 62.7368 C 770.153 41.8002 796.382 19.7874 824.078 0 z"/>
<path transform="translate(0,0)" fill="rgb(195,195,194)" d="M 1057.3 503.967 C 1064.8 505.329 1150.87 563.129 1165.46 572.781 C 1172.61 607.77 1176.97 643.438 1183.34 678.581 L 1191.15 723.391 C 1192.62 732.287 1193.58 741.531 1195.82 750.26 L 1196 750.726 C 1199.52 779.112 1205.12 807.674 1210.08 835.856 C 1211.99 846.716 1212.6 858.641 1215.57 869.204 L 1231.95 965.516 C 1234.8 982.416 1237.2 999.389 1240.82 1016.15 C 1232.23 1037.96 1178.85 1184.18 1173.98 1189.16 L 1173.29 1189.37 C 1161.91 1191.77 1150.23 1192.98 1138.69 1194.51 C 1122.9 1197.33 1106.89 1199.25 1091.14 1202.26 C 1091.85 1208.67 1094.11 1235.8 1098.34 1239.31 C 1098.48 1239.43 1098.64 1239.53 1098.79 1239.63 C 1098.14 1240.03 1097.28 1240.2 1096.83 1240.82 C 1094.31 1244.29 1085.91 1281.8 1083.56 1289.41 C 1077.09 1284.8 1060.59 1260.58 1054.34 1252.44 L 980.941 1157.51 C 968.27 1141.07 956.323 1122.92 942.161 1107.8 C 925.514 1096.03 907.759 1085.43 890.592 1074.4 C 864.129 1057.15 837.517 1040.13 810.759 1023.33 C 790.961 1011 771.916 996.361 751.292 985.535 L 750.163 984.55 C 743.945 978.028 700.647 950.953 691.257 946.197 L 689.83 945.304 L 607.935 892.528 C 591.925 882.175 575.286 869.549 557.974 861.562 L 557.91 860.92 C 565.555 853.067 572.523 844.641 580.538 837.138 C 589.583 828.145 602.113 816.013 608.524 804.998 C 624.46 792.26 640.361 771.246 654.128 755.761 L 654.831 755.528 C 657.089 737.766 659.158 719.981 661.035 702.175 C 699.531 717.947 738.616 732.402 777.353 747.586 C 788.578 751.986 817.207 765.017 827.671 766.805 C 837.374 764.889 847.025 763.005 856.836 761.713 C 869.676 758.489 882.857 755.583 895.936 753.519 C 894.642 737.954 890.606 721.883 887.998 706.459 C 883.601 680.459 879.942 653.855 874.286 628.121 C 894.219 607.844 919.617 587.375 941.094 568.143 C 954.254 556.359 988.359 522.007 1000.76 515.884 C 1012.92 524.674 1026.49 531.438 1038.84 539.955 C 1043.69 527.881 1050.5 515.084 1057.3 503.967 z"/>
<path transform="translate(0,0)" fill="rgb(230,230,229)" d="M 1057.3 503.967 C 1064.8 505.329 1150.87 563.129 1165.46 572.781 C 1172.61 607.77 1176.97 643.438 1183.34 678.581 L 1191.15 723.391 C 1192.62 732.287 1193.58 741.531 1195.82 750.26 L 1196 750.726 C 1199.52 779.112 1205.12 807.674 1210.08 835.856 C 1211.99 846.716 1212.6 858.641 1215.57 869.204 L 1231.95 965.516 C 1234.8 982.416 1237.2 999.389 1240.82 1016.15 C 1232.23 1037.96 1178.85 1184.18 1173.98 1189.16 L 1173.29 1189.37 C 1161.91 1191.77 1150.23 1192.98 1138.69 1194.51 C 1136.85 1192.5 1136.8 1189.22 1136.37 1186.59 C 1122.94 1104.28 1111.98 1021.46 1099.32 939.023 C 1081.79 824.939 1063.22 710.8 1047.59 596.45 C 1062.15 592.36 1077.92 590.651 1092.86 588.451 C 1091.22 580.49 1089.63 572.521 1088.09 564.544 C 1074.56 567.711 1060.42 568.934 1046.75 571.708 L 1044.83 571.252 C 1040.32 567.024 1039.72 546.698 1038.84 539.955 C 1043.69 527.881 1050.5 515.084 1057.3 503.967 z"/>
<path transform="translate(0,0)" fill="rgb(111,199,165)" d="M 661.035 702.175 C 699.531 717.947 738.616 732.402 777.353 747.586 C 788.578 751.986 817.207 765.017 827.671 766.805 C 837.374 764.889 847.025 763.005 856.836 761.713 C 869.676 758.489 882.857 755.583 895.936 753.519 C 898.465 767.661 901.751 782.096 903.394 796.358 C 906.683 818.376 910.468 840.317 914.747 862.165 L 913.218 865.256 C 899.033 873.415 880.9 878.375 865.482 884.107 L 775.915 917.688 C 761.712 923.023 746.714 927.634 732.968 934.046 L 580.538 837.138 C 589.583 828.145 602.113 816.013 608.524 804.998 C 624.46 792.26 640.361 771.246 654.128 755.761 L 654.831 755.528 C 657.089 737.766 659.158 719.981 661.035 702.175 z"/>
<path transform="translate(0,0)" fill="rgb(49,120,92)" d="M 661.035 702.175 C 699.531 717.947 738.616 732.402 777.353 747.586 C 788.578 751.986 817.207 765.017 827.671 766.805 C 837.374 764.889 847.025 763.005 856.836 761.713 C 869.676 758.489 882.857 755.583 895.936 753.519 C 898.465 767.661 901.751 782.096 903.394 796.358 C 906.683 818.376 910.468 840.317 914.747 862.165 L 913.218 865.256 C 901.542 861.231 890.07 855.769 878.684 850.956 L 814.571 823.728 L 654.831 755.528 C 657.089 737.766 659.158 719.981 661.035 702.175 z"/>
<path transform="translate(0,0)" fill="rgb(139,101,79)" d="M 856.836 761.713 C 869.676 758.489 882.857 755.583 895.936 753.519 C 898.465 767.661 901.751 782.096 903.394 796.358 C 890.627 792.199 878.044 786.751 865.505 781.916 C 852.911 777.059 839.838 772.652 827.671 766.805 C 837.374 764.889 847.025 763.005 856.836 761.713 z"/>
<path transform="translate(0,0)" fill="rgb(49,120,92)" d="M 557.91 860.92 C 565.555 853.067 572.523 844.641 580.538 837.138 L 732.968 934.046 C 746.714 927.634 761.712 923.023 775.915 917.688 L 865.482 884.107 C 880.9 878.375 899.033 873.415 913.218 865.256 L 914.747 862.165 C 927.141 931.99 939.055 1001.9 950.489 1071.89 C 962.884 1085.69 977.989 1097.75 991.658 1110.32 C 1024.8 1140.8 1058.93 1170.81 1091.14 1202.26 C 1091.85 1208.67 1094.11 1235.8 1098.34 1239.31 C 1098.48 1239.43 1098.64 1239.53 1098.79 1239.63 C 1098.14 1240.03 1097.28 1240.2 1096.83 1240.82 C 1094.31 1244.29 1085.91 1281.8 1083.56 1289.41 C 1077.09 1284.8 1060.59 1260.58 1054.34 1252.44 L 980.941 1157.51 C 968.27 1141.07 956.323 1122.92 942.161 1107.8 C 925.514 1096.03 907.759 1085.43 890.592 1074.4 C 864.129 1057.15 837.517 1040.13 810.759 1023.33 C 790.961 1011 771.916 996.361 751.292 985.535 L 750.163 984.55 C 743.945 978.028 700.647 950.953 691.257 946.197 L 689.83 945.304 L 607.935 892.528 C 591.925 882.175 575.286 869.549 557.974 861.562 L 557.91 860.92 z"/>
<path transform="translate(0,0)" fill="rgb(80,175,138)" d="M 914.747 862.165 C 927.141 931.99 939.055 1001.9 950.489 1071.89 C 939.933 1066.49 929.975 1059.44 919.988 1053.04 L 869.794 1020.85 L 732.968 934.046 C 746.714 927.634 761.712 923.023 775.915 917.688 L 865.482 884.107 C 880.9 878.375 899.033 873.415 913.218 865.256 L 914.747 862.165 z"/>
<path transform="translate(0,0)" fill="rgb(139,101,79)" d="M 1046.75 571.708 C 1060.42 568.934 1074.56 567.711 1088.09 564.544 C 1089.63 572.521 1091.22 580.49 1092.86 588.451 C 1077.92 590.651 1062.15 592.36 1047.59 596.45 C 1023.88 599.793 1000.25 603.712 976.731 608.203 C 975.486 600.196 973.223 592.275 971.283 584.41 C 996.296 579.544 1021.63 576.094 1046.75 571.708 z"/>
<path transform="translate(0,0)" fill="rgb(194,151,123)" d="M 534.987 227.668 C 560.939 206.37 587.613 185.87 613.896 164.974 C 638.677 145.272 663.162 125.046 688.482 106.047 C 692.88 114.151 698.359 121.662 702.67 129.752 L 705.553 133.98 C 715.215 151.622 725.839 168.741 736.089 186.045 C 741.945 195.931 748.7 205.794 752.685 216.603 C 758.226 231.632 760.156 249.699 762.998 265.49 L 775.147 330.649 L 834.157 641 L 851.211 731.881 C 853.052 741.258 853.737 752.828 856.836 761.713 C 847.025 763.005 837.374 764.889 827.671 766.805 C 817.207 765.017 788.578 751.986 777.353 747.586 C 738.616 732.402 699.531 717.947 661.035 702.175 C 659.158 719.981 657.089 737.766 654.831 755.528 L 654.128 755.761 C 640.361 771.246 624.46 792.26 608.524 804.998 C 602.113 816.013 589.583 828.145 580.538 837.138 C 572.523 844.641 565.555 853.067 557.91 860.92 C 546.448 851.383 516.951 833.144 509.258 824.384 C 513.337 811.4 518.77 798.627 523.632 785.91 C 530.215 768.692 536.541 751.303 543.71 734.324 C 535.356 725.973 486.432 671.396 483.07 662.893 C 490.454 644.799 503.122 626.689 512.927 609.712 C 532.482 575.402 552.313 541.251 572.421 507.262 C 572.634 500.878 560.834 472.398 558.02 464.967 C 573.359 458.409 589.344 453.121 604.98 447.292 C 595.856 426.767 589.814 400.808 582.992 379.113 C 567.116 328.621 551.8 277.852 534.987 227.668 z"/>
<path transform="translate(0,0)" fill="rgb(144,143,143)" d="M 534.987 227.668 C 560.939 206.37 587.613 185.87 613.896 164.974 C 638.677 145.272 663.162 125.046 688.482 106.047 C 692.88 114.151 698.359 121.662 702.67 129.752 L 633.448 261.55 C 648.14 270.728 673.208 287.213 688.455 293.324 C 686.074 307.014 685.472 321.272 684.336 335.121 L 677.541 427.188 C 676.447 440.295 676.11 454.211 673.517 467.102 C 658.541 457.453 642.537 449.549 627.557 440.014 C 619.993 442.335 612.434 444.633 604.98 447.292 C 595.856 426.767 589.814 400.808 582.992 379.113 C 567.116 328.621 551.8 277.852 534.987 227.668 z"/>
<path transform="translate(0,0)" fill="rgb(144,143,143)" d="M 649.181 638.97 L 649.687 638.715 C 651.977 656.723 656.546 684.916 661.035 702.175 C 659.158 719.981 657.089 737.766 654.831 755.528 L 654.128 755.761 C 640.361 771.246 624.46 792.26 608.524 804.998 C 602.113 816.013 589.583 828.145 580.538 837.138 C 572.523 844.641 565.555 853.067 557.91 860.92 C 546.448 851.383 516.951 833.144 509.258 824.384 C 513.337 811.4 518.77 798.627 523.632 785.91 C 530.215 768.692 536.541 751.303 543.71 734.324 C 535.356 725.973 486.432 671.396 483.07 662.893 C 509.093 661.763 537.793 655.518 563.761 652.062 C 585.025 649.365 606.264 646.471 627.475 643.38 C 633.276 642.535 641.572 642.346 646.977 640.417 C 648.09 640.019 648.388 639.661 649.181 638.97 z"/>
<path transform="translate(0,0)" fill="rgb(195,195,194)" d="M 543.71 734.324 C 571.208 740.357 598.963 744.973 626.593 750.352 C 635.499 752.085 645.608 752.751 654.128 755.761 C 640.361 771.246 624.46 792.26 608.524 804.998 C 602.113 816.013 589.583 828.145 580.538 837.138 C 572.523 844.641 565.555 853.067 557.91 860.92 C 546.448 851.383 516.951 833.144 509.258 824.384 C 513.337 811.4 518.77 798.627 523.632 785.91 C 530.215 768.692 536.541 751.303 543.71 734.324 z"/>
<path transform="translate(0,0)" fill="rgb(144,143,143)" d="M 509.258 824.384 C 522.828 822.46 536.161 819.131 549.605 816.5 C 569.257 812.653 588.914 809.09 608.524 804.998 C 602.113 816.013 589.583 828.145 580.538 837.138 C 572.523 844.641 565.555 853.067 557.91 860.92 C 546.448 851.383 516.951 833.144 509.258 824.384 z"/>
<path transform="translate(0,0)" fill="rgb(230,230,229)" d="M 572.421 507.262 C 581.262 522.435 589.219 557.009 596.958 575.738 C 609.789 571.998 622.731 568.926 635.741 565.886 C 640.133 590.124 645.892 614.602 649.181 638.97 C 648.388 639.661 648.09 640.019 646.977 640.417 C 641.572 642.346 633.276 642.535 627.475 643.38 C 606.264 646.471 585.025 649.365 563.761 652.062 C 537.793 655.518 509.093 661.763 483.07 662.893 C 490.454 644.799 503.122 626.689 512.927 609.712 C 532.482 575.402 552.313 541.251 572.421 507.262 z"/>
<path transform="translate(0,0)" fill="rgb(139,101,79)" d="M 635.741 565.886 C 652.132 561.253 670.576 558.27 686.259 551.978 C 678.803 570.691 671.115 589.312 663.197 607.836 C 658.994 617.881 655.222 629.402 649.687 638.715 L 649.181 638.97 C 645.892 614.602 640.133 590.124 635.741 565.886 z"/>
<path transform="translate(0,0)" fill="rgb(139,101,79)" d="M 637.099 463.345 C 639.67 465.597 652.486 514.436 654.951 522.061 L 627.494 503.801 C 614.559 495.321 601.728 486.682 589.005 477.887 C 605.368 474.511 620.83 467.441 637.099 463.345 z"/>
<path transform="translate(0,0)" fill="rgb(230,230,229)" d="M 825.649 0.909024 C 855.401 7.60511 884.759 17.6485 914.044 26.1724 C 931.356 31.2114 954.821 36.0801 970.83 43.1823 C 985.774 47.0836 1022.1 55.2216 1033.8 62.0798 C 1042.96 67.4509 1106.82 155.43 1117.76 170.965 C 1109.29 170.83 997.335 104.511 978.963 94.0028 C 965.937 109.346 951.73 123.909 938.061 138.689 C 927.03 150.617 916.233 163.337 904.471 174.529 C 896.434 157.32 825.398 7.76496 825.649 0.909024 z"/>
<path transform="translate(0,0)" fill="rgb(195,195,194)" d="M 824.078 0 L 825.622 0 L 825.649 0.909024 C 825.398 7.76496 896.434 157.32 904.471 174.529 C 888.078 173.55 861.614 166.155 844.652 162.535 C 798.485 152.682 752.074 141.908 705.553 133.98 L 702.67 129.752 C 698.359 121.662 692.88 114.151 688.482 106.047 C 705.001 90.3681 725.353 76.7515 743.317 62.7368 C 770.153 41.8002 796.382 19.7874 824.078 0 z"/>
<path transform="translate(0,0)" fill="rgb(195,195,194)" d="M 1252.3 609.18 C 1263.56 618.01 1328.48 668.905 1332.71 675.72 C 1317.77 708.95 1302.41 742.358 1286.07 774.921 C 1255.67 769.161 1226.52 755.543 1196 750.726 L 1195.82 750.26 C 1193.58 741.531 1192.62 732.287 1191.15 723.391 L 1183.34 678.581 C 1190.69 675.991 1198.29 673.916 1205.75 671.645 C 1200.96 651.547 1198.49 630.045 1195.06 609.626 C 1214.13 609.667 1233.24 609.933 1252.3 609.18 z"/>
<path transform="translate(0,0)" fill="rgb(144,143,143)" d="M 1195.82 750.26 C 1211.81 739.159 1230.83 730.518 1247.98 721.272 C 1276.1 705.864 1304.34 690.68 1332.71 675.72 C 1317.77 708.95 1302.41 742.358 1286.07 774.921 C 1255.67 769.161 1226.52 755.543 1196 750.726 L 1195.82 750.26 z"/>
<path transform="translate(0,0)" fill="rgb(144,143,143)" d="M 1162.99 418.201 C 1192.88 430.195 1222.69 442.382 1252.43 454.76 C 1267.21 460.857 1284.35 466.226 1298.08 474.336 C 1296.5 488.501 1283.94 518.447 1278.92 532.945 C 1270.19 558.174 1262.48 584.543 1252.3 609.18 C 1233.24 609.933 1214.13 609.667 1195.06 609.626 C 1192.57 599.956 1191.68 589.255 1189.97 579.359 C 1186.3 558.184 1182.5 537.208 1179.53 515.914 C 1176.57 507.56 1162.9 426.3 1162.99 418.201 z"/>
<path transform="translate(0,0)" fill="rgb(230,230,229)" d="M 1162.99 418.201 C 1192.88 430.195 1222.69 442.382 1252.43 454.76 C 1267.21 460.857 1284.35 466.226 1298.08 474.336 L 1224.35 499.868 C 1209.45 504.979 1193.97 509.62 1179.53 515.914 C 1176.57 507.56 1162.9 426.3 1162.99 418.201 z"/>
<path transform="translate(0,0)" fill="rgb(144,143,143)" d="M 1055.72 503.873 L 1057.3 503.967 C 1050.5 515.084 1043.69 527.881 1038.84 539.955 C 1026.49 531.438 1012.92 524.674 1000.76 515.884 L 1001.25 515.193 C 1019.33 511.036 1037.39 506.76 1055.72 503.873 z"/>
<path transform="translate(0,0)" fill="rgb(194,151,123)" d="M 806.046 304.033 C 831.879 288.074 857.325 270.7 882.489 253.71 C 884.83 260.375 886.784 267.23 888.905 273.972 C 899.933 279.513 912.557 284.481 922.801 291.222 C 933.446 306.005 960.707 340.353 966.822 354.593 C 972.779 368.467 978.28 408.997 981.598 425.751 L 991.927 478.454 C 994.3 490.279 997.304 502.103 998.807 514.071 C 991.125 509.214 984.455 500.34 978.066 493.819 C 967.103 482.629 901.082 412.53 895.259 410.467 C 892.402 410.877 889.43 411.428 886.541 411.118 C 880.622 410.484 874.709 407.414 871.144 402.604 C 866.49 396.323 866.431 390.086 867.485 382.664 C 866.735 377.097 822.929 336.259 815.613 327.514 C 812.696 319.541 809.513 311.782 806.046 304.033 z"/>
<path transform="translate(0,0)" fill="rgb(144,143,143)" d="M 806.046 304.033 C 831.879 288.074 857.325 270.7 882.489 253.71 C 884.83 260.375 886.784 267.23 888.905 273.972 C 876.216 284.354 862.632 293.764 849.394 303.433 C 838.351 311.499 827.266 320.361 815.613 327.514 C 812.696 319.541 809.513 311.782 806.046 304.033 z"/>
<path transform="translate(0,0)" fill="rgb(31,31,31)" d="M 867.485 382.664 C 871.181 376.127 875.109 371.072 882.557 368.745 C 888.216 366.977 894.251 367.834 899.317 370.845 C 904.563 374.004 908.263 379.198 909.535 385.188 C 910.741 390.89 909.535 396.836 906.201 401.617 C 903.371 405.765 899.618 408.173 895.259 410.467 C 892.402 410.877 889.43 411.428 886.541 411.118 C 880.622 410.484 874.709 407.414 871.144 402.604 C 866.49 396.323 866.431 390.086 867.485 382.664 z"/>
<path transform="translate(0,0)" fill="rgb(194,151,123)" d="M 989.528 235.55 L 1051.01 249.101 C 1060.8 251.267 1070.75 252.916 1080.38 255.726 C 1078.3 261.264 1076.27 266.787 1074.46 272.417 C 1071.44 283.804 1059.67 320.423 1060.17 328.761 L 1061.13 329.949 C 1069.23 331.305 1075.87 337.136 1078.26 344.998 C 1080.65 352.861 1078.38 361.397 1072.4 367.032 C 1066.41 372.668 1057.76 374.428 1050.05 371.576 C 1040.93 377.781 1042.95 398.069 1036.61 406.937 C 1030.19 385.863 1028.69 363.069 1021.17 342.441 C 1015.49 326.863 989.898 294.911 979.293 280.091 C 986.044 273.894 991.51 266.518 998.498 260.453 C 995.615 252.114 992.625 243.812 989.528 235.55 z"/>
<path transform="translate(0,0)" fill="rgb(144,143,143)" d="M 989.528 235.55 L 1051.01 249.101 C 1060.8 251.267 1070.75 252.916 1080.38 255.726 C 1078.3 261.264 1076.27 266.787 1074.46 272.417 C 1049.51 267.403 1023.79 263.171 998.498 260.453 C 995.615 252.114 992.625 243.812 989.528 235.55 z"/>
<path transform="translate(0,0)" fill="rgb(31,31,31)" d="M 1039.63 363.397 C 1034.79 356.229 1034.68 346.866 1039.36 339.59 C 1044.04 332.313 1052.6 328.522 1061.13 329.949 C 1069.23 331.305 1075.87 337.136 1078.26 344.998 C 1080.65 352.861 1078.38 361.397 1072.4 367.032 C 1066.41 372.668 1057.76 374.428 1050.05 371.576 C 1045.81 370.006 1042.17 367.146 1039.63 363.397 z"/>
<path transform="translate(0,0)" fill="rgb(116,141,84)" d="M 750.163 984.55 L 751.292 985.535 C 771.916 996.361 790.961 1011 810.759 1023.33 C 837.517 1040.13 864.129 1057.15 890.592 1074.4 C 907.759 1085.43 925.514 1096.03 942.161 1107.8 C 956.323 1122.92 968.27 1141.07 980.941 1157.51 L 1054.34 1252.44 C 1060.59 1260.58 1077.09 1284.8 1083.56 1289.41 C 1085.91 1281.8 1094.31 1244.29 1096.83 1240.82 C 1097.28 1240.2 1098.14 1240.03 1098.79 1239.63 C 1113.64 1237.28 1128.52 1235.08 1143.41 1233.02 C 1155.94 1231.31 1168.43 1229.07 1180.91 1227.04 C 1180.61 1220.33 1177.23 1193.53 1173.29 1189.37 L 1173.98 1189.16 C 1178.85 1184.18 1232.23 1037.96 1240.82 1016.15 L 1241.3 1018.23 C 1241.06 1066.02 1243.77 1113.95 1244.85 1161.73 L 1255.76 1567.79 C 1257.17 1621.37 1259.83 1675.18 1260.11 1728.76 C 1260.57 1742.73 1260.76 1756.77 1261.63 1770.72 C 1243.05 1777.44 1223.76 1782.53 1204.81 1788.12 C 1180.42 1795.31 1156.08 1802.62 1131.78 1810.07 C 1126.95 1824.96 1123.94 1840.26 1119.41 1855.19 C 1141.13 1872.27 1162.14 1890.37 1183.37 1908.05 C 1201.91 1923.48 1220.99 1938.57 1238.84 1954.77 L 1240.8 1957.85 C 1238.93 1967.88 1240.08 1980.21 1239.99 1990.58 C 1154.69 1989.53 1069.19 1990.29 983.873 1990.64 C 982.663 1975.39 983.271 1959.64 983.18 1944.33 L 983.811 1939.73 L 983.787 1939.35 C 982.511 1930.22 983.424 1920.06 983.47 1910.79 C 983.643 1892.1 983.631 1873.41 983.434 1854.73 C 924.105 1871.3 865.17 1890.13 806.165 1907.88 C 782.13 1895.34 756.344 1885.79 731.761 1874.31 C 743.296 1899 748.021 1927.55 757.278 1953.21 C 759.569 1960.18 762.26 1967.26 763.691 1974.46 C 764.456 1986.04 764.029 1997.91 764.055 2009.53 C 742.101 2010.36 719.89 2009.72 697.903 2009.72 L 573.872 2009.77 L 573.779 1972.18 L 574.604 1971.27 C 576.96 1953.97 582.297 1936.28 586.443 1919.28 C 591.77 1885.66 599.078 1852.01 605.981 1818.65 C 577.146 1805.33 547.942 1792.73 518.918 1779.82 C 523.965 1767.63 527.131 1754.47 531.319 1741.95 C 540.768 1720.51 548.713 1693.41 556.772 1670.98 L 610.288 1522.05 L 691.713 1295.29 C 705.696 1256.3 720.779 1217.42 733.563 1178.04 C 730.743 1169.03 723.559 1159 718.846 1150.76 L 689.149 1098.82 C 695.5 1082.75 705.214 1067.33 713.555 1052.19 L 750.163 984.55 z"/>
<path transform="translate(0,0)" fill="rgb(154,193,107)" d="M 942.161 1107.8 C 956.323 1122.92 968.27 1141.07 980.941 1157.51 L 1054.34 1252.44 C 1060.59 1260.58 1077.09 1284.8 1083.56 1289.41 L 1083.66 1290.31 C 1068.92 1319.85 1055.42 1350.22 1041.27 1380.07 L 944.631 1584.36 L 851.25 1781.57 C 837.429 1810.94 822.801 1840.05 809.734 1869.76 C 811.759 1850.13 811.713 1830.11 812.57 1810.39 L 818.148 1674.8 L 841.041 1141.68 C 875.133 1132.21 908.3 1118.29 942.161 1107.8 z"/>
<path transform="translate(0,0)" fill="rgb(49,120,92)" d="M 810.193 1868.73 C 838.796 1860.97 867.375 1850.92 895.661 1841.94 L 1016.28 1804.56 L 1186.03 1751.76 C 1210.69 1744.06 1235.67 1737.1 1260.11 1728.76 C 1260.57 1742.73 1260.76 1756.77 1261.63 1770.72 C 1243.05 1777.44 1223.76 1782.53 1204.81 1788.12 C 1180.42 1795.31 1156.08 1802.62 1131.78 1810.07 C 1126.95 1824.96 1123.94 1840.26 1119.41 1855.19 C 1141.13 1872.27 1162.14 1890.37 1183.37 1908.05 C 1201.91 1923.48 1220.99 1938.57 1238.84 1954.77 L 1240.8 1957.85 C 1238.93 1967.88 1240.08 1980.21 1239.99 1990.58 C 1154.69 1989.53 1069.19 1990.29 983.873 1990.64 C 982.663 1975.39 983.271 1959.64 983.18 1944.33 L 983.811 1939.73 L 983.787 1939.35 C 982.511 1930.22 983.424 1920.06 983.47 1910.79 C 983.643 1892.1 983.631 1873.41 983.434 1854.73 C 924.105 1871.3 865.17 1890.13 806.165 1907.88 C 782.13 1895.34 756.344 1885.79 731.761 1874.31 C 743.296 1899 748.021 1927.55 757.278 1953.21 C 759.569 1960.18 762.26 1967.26 763.691 1974.46 C 764.456 1986.04 764.029 1997.91 764.055 2009.53 C 742.101 2010.36 719.89 2009.72 697.903 2009.72 L 573.872 2009.77 L 573.779 1972.18 L 574.604 1971.27 C 576.96 1953.97 582.297 1936.28 586.443 1919.28 C 591.77 1885.66 599.078 1852.01 605.981 1818.65 C 577.146 1805.33 547.942 1792.73 518.918 1779.82 C 523.965 1767.63 527.131 1754.47 531.319 1741.95 C 542.466 1744.96 553.593 1750.93 564.086 1755.73 L 620.989 1782.02 L 810.193 1868.73 z"/>
<path transform="translate(0,0)" fill="rgb(80,175,138)" d="M 984.262 1919.14 C 1028.91 1897.19 1075.33 1878.14 1119.41 1855.19 C 1141.13 1872.27 1162.14 1890.37 1183.37 1908.05 C 1201.91 1923.48 1220.99 1938.57 1238.84 1954.77 L 1240.8 1957.85 C 1238.93 1967.88 1240.08 1980.21 1239.99 1990.58 C 1154.69 1989.53 1069.19 1990.29 983.873 1990.64 C 982.663 1975.39 983.271 1959.64 983.18 1944.33 L 983.811 1939.73 L 983.787 1939.35 C 984.576 1932.74 984.235 1925.8 984.262 1919.14 z"/>
<path transform="translate(0,0)" fill="rgb(49,120,92)" d="M 983.18 1944.33 L 983.811 1939.73 C 984.101 1945.03 984.257 1950.27 984.223 1955.58 C 1007.23 1954.6 1030.46 1955.2 1053.49 1955.2 L 1169.76 1955.18 C 1192.28 1955.18 1216.51 1957.11 1238.84 1954.77 L 1240.8 1957.85 C 1238.93 1967.88 1240.08 1980.21 1239.99 1990.58 C 1154.69 1989.53 1069.19 1990.29 983.873 1990.64 C 982.663 1975.39 983.271 1959.64 983.18 1944.33 z"/>
<path transform="translate(0,0)" fill="rgb(80,175,138)" d="M 586.443 1919.28 C 603.554 1916.18 627.646 1906.81 644.772 1901.53 L 698.998 1884.69 C 709.892 1881.35 721.174 1878.54 731.761 1874.31 C 743.296 1899 748.021 1927.55 757.278 1953.21 C 759.569 1960.18 762.26 1967.26 763.691 1974.46 C 764.456 1986.04 764.029 1997.91 764.055 2009.53 C 742.101 2010.36 719.89 2009.72 697.903 2009.72 L 573.872 2009.77 L 573.779 1972.18 L 574.604 1971.27 C 576.96 1953.97 582.297 1936.28 586.443 1919.28 z"/>
<path transform="translate(0,0)" fill="rgb(49,120,92)" d="M 573.779 1972.18 L 574.604 1971.27 L 575.467 1974.42 C 593.996 1975.53 613.293 1974.27 631.92 1974.27 L 763.691 1974.46 C 764.456 1986.04 764.029 1997.91 764.055 2009.53 C 742.101 2010.36 719.89 2009.72 697.903 2009.72 L 573.872 2009.77 L 573.779 1972.18 z"/>
<path transform="translate(0,0)" fill="rgb(66,95,31)" d="M 750.163 984.55 L 751.292 985.535 L 841.19 1141.96 C 828.347 1146.34 736.823 1175.37 733.563 1178.04 C 730.743 1169.03 723.559 1159 718.846 1150.76 L 689.149 1098.82 C 695.5 1082.75 705.214 1067.33 713.555 1052.19 L 750.163 984.55 z"/>
<path transform="translate(0,0)" fill="rgb(195,195,194)" d="M 1098.79 1239.63 C 1113.64 1237.28 1128.52 1235.08 1143.41 1233.02 C 1145.85 1248.08 1156.93 1333.52 1161.55 1341.34 L 1160.74 1342.72 C 1155.44 1342.18 1092.24 1296.41 1083.66 1290.31 L 1083.56 1289.41 C 1085.91 1281.8 1094.31 1244.29 1096.83 1240.82 C 1097.28 1240.2 1098.14 1240.03 1098.79 1239.63 z"/>
<path transform="translate(0,0)" fill="rgb(230,230,229)" d="M 1180.91 1227.04 C 1188.02 1238.65 1196.19 1250.3 1202.4 1262.38 C 1188.58 1288.56 1175.71 1315.35 1161.55 1341.34 C 1156.93 1333.52 1145.85 1248.08 1143.41 1233.02 C 1155.94 1231.31 1168.43 1229.07 1180.91 1227.04 z"/>
<path transform="translate(0,0)" fill="rgb(116,141,84)" d="M 557.974 861.562 C 575.286 869.549 591.925 882.175 607.935 892.528 L 689.83 945.304 L 691.257 946.197 C 700.647 950.953 743.945 978.028 750.163 984.55 L 713.555 1052.19 C 705.214 1067.33 695.5 1082.75 689.149 1098.82 C 679.501 1114.8 671.077 1131.64 662.235 1148.07 L 618.324 1229.64 C 609.906 1245.33 602.123 1262.28 592.42 1277.17 C 584.706 1289.98 576.919 1303 568.104 1315.08 C 549.273 1321.07 530.615 1327.6 511.839 1333.76 C 500.78 1337.39 488.03 1340.26 477.657 1345.49 C 472.508 1356.12 463.297 1366.72 456.344 1376.3 C 440.917 1397.56 425.065 1418.6 410.204 1440.26 C 400.697 1431.41 391.117 1422.64 381.464 1413.95 C 363.926 1435.84 344.849 1456.62 326.837 1478.14 C 312.263 1455.06 295.149 1433.54 280.521 1410.47 C 290.303 1378.65 298.927 1346.47 308.514 1314.58 C 316.693 1294.3 326.596 1274.32 335.97 1254.54 C 341.796 1242.14 347.896 1229.79 353.099 1217.12 C 345.502 1200.94 335.29 1185.37 326.33 1169.88 C 332.609 1157.7 343.288 1145.84 351.87 1135.09 L 354.122 1132.69 C 362.039 1119.99 372.116 1108.02 381.112 1096.04 L 430.198 1030.66 L 506.767 928.942 C 523.694 906.421 540.292 883.49 557.974 861.562 z"/>
<path transform="translate(0,0)" fill="rgb(89,118,57)" d="M 691.257 946.197 C 700.647 950.953 743.945 978.028 750.163 984.55 L 713.555 1052.19 C 705.214 1067.33 695.5 1082.75 689.149 1098.82 C 679.501 1114.8 671.077 1131.64 662.235 1148.07 L 618.324 1229.64 C 609.906 1245.33 602.123 1262.28 592.42 1277.17 C 578.282 1278.14 557.611 1285.75 543.171 1289.66 C 512.584 1297.93 481.707 1305.53 451.359 1314.62 C 456.626 1303.95 464.112 1293.86 470.652 1283.91 L 503.118 1234.49 C 551.133 1161.24 599.692 1088.21 646.706 1014.32 C 656.103 999.551 665.985 985.054 675.698 970.489 C 680.976 962.575 686.919 954.667 691.257 946.197 z"/>
<path transform="translate(0,0)" fill="rgb(154,193,107)" d="M 557.974 861.562 C 575.286 869.549 591.925 882.175 607.935 892.528 L 689.83 945.304 C 670.954 957.727 650.26 968.059 630.544 979.128 L 522.783 1039.74 L 411.423 1102.38 C 397.51 1110.2 368.197 1129.18 354.122 1132.69 C 362.039 1119.99 372.116 1108.02 381.112 1096.04 L 430.198 1030.66 L 506.767 928.942 C 523.694 906.421 540.292 883.49 557.974 861.562 z"/>
<path transform="translate(0,0)" fill="rgb(194,151,123)" d="M 335.97 1254.54 L 395.683 1317.58 C 407.482 1330.06 418.955 1343.64 431.818 1354.95 L 434.971 1358.89 C 446.817 1357.46 463.604 1348.05 477.657 1345.49 C 472.508 1356.12 463.297 1366.72 456.344 1376.3 C 440.917 1397.56 425.065 1418.6 410.204 1440.26 C 400.697 1431.41 391.117 1422.64 381.464 1413.95 C 363.926 1435.84 344.849 1456.62 326.837 1478.14 C 312.263 1455.06 295.149 1433.54 280.521 1410.47 C 290.303 1378.65 298.927 1346.47 308.514 1314.58 C 316.693 1294.3 326.596 1274.32 335.97 1254.54 z"/>
<path transform="translate(0,0)" fill="rgb(222,189,166)" d="M 335.97 1254.54 L 395.683 1317.58 C 407.482 1330.06 418.955 1343.64 431.818 1354.95 L 434.971 1358.89 C 430.206 1365.7 422.506 1371.87 416.609 1377.85 C 404.887 1389.73 393.517 1401.9 381.456 1413.45 C 357.578 1381.36 333.88 1344.96 308.514 1314.58 C 316.693 1294.3 326.596 1274.32 335.97 1254.54 z"/>
<path transform="translate(0,0)" fill="rgb(49,120,92)" d="M 326.33 1169.88 C 332.609 1157.7 343.288 1145.84 351.87 1135.09 C 363.296 1160.6 380.766 1187.93 394.579 1212.61 C 413.55 1246.51 431.422 1281.31 451.359 1314.62 C 481.707 1305.53 512.584 1297.93 543.171 1289.66 C 557.611 1285.75 578.282 1278.14 592.42 1277.17 C 584.706 1289.98 576.919 1303 568.104 1315.08 C 549.273 1321.07 530.615 1327.6 511.839 1333.76 C 500.78 1337.39 488.03 1340.26 477.657 1345.49 C 463.604 1348.05 446.817 1357.46 434.971 1358.89 L 431.818 1354.95 C 418.955 1343.64 407.482 1330.06 395.683 1317.58 L 335.97 1254.54 C 341.796 1242.14 347.896 1229.79 353.099 1217.12 C 345.502 1200.94 335.29 1185.37 326.33 1169.88 z"/>
<path transform="translate(0,0)" fill="rgb(139,101,79)" d="M 353.099 1217.12 C 361.074 1227.26 429.205 1346.57 431.818 1354.95 C 418.955 1343.64 407.482 1330.06 395.683 1317.58 L 335.97 1254.54 C 341.796 1242.14 347.896 1229.79 353.099 1217.12 z"/>
<path transform="translate(0,0)" fill="rgb(116,141,84)" d="M 1599.36 523.842 L 1599.79 524.03 C 1605.2 526.389 1609.54 529.674 1614.22 533.202 C 1613.58 535.221 1612.55 537.527 1612.28 539.608 C 1613.62 554.534 1607.71 572.671 1604.97 587.477 C 1600.45 611.978 1595.26 637.055 1592.37 661.742 C 1586.91 691.425 1582.58 721.419 1576.69 750.993 L 1575.71 751.041 C 1562.38 764.405 1547.6 776.507 1533.3 788.82 L 1533.57 789.585 C 1539.29 805.207 1573.79 877.094 1573.28 886.499 C 1567.49 896.36 1558.18 904.959 1550.5 913.415 L 1512.72 954.974 L 1459.51 1013.47 C 1450.13 1023.8 1441.04 1034.83 1431.01 1044.49 C 1417.64 1043.49 1404.27 1042.38 1390.92 1041.16 C 1371.53 1039 1352.25 1034.96 1332.91 1032.21 C 1313.22 1029.4 1293.62 1026.17 1273.97 1023.18 C 1263.12 1021.53 1252.03 1020.52 1241.3 1018.23 L 1240.82 1016.15 C 1237.2 999.389 1234.8 982.416 1231.95 965.516 L 1215.57 869.204 C 1212.6 858.641 1211.99 846.716 1210.08 835.856 C 1205.12 807.674 1199.52 779.112 1196 750.726 C 1226.52 755.543 1255.67 769.161 1286.07 774.921 C 1312.37 782.788 1347.46 790.446 1372 799.92 C 1398.27 764.501 1426.96 730.318 1454.78 696.069 C 1461.68 685.302 1472.17 675.08 1480.32 665.008 C 1485.46 652.135 1498.95 591.053 1504.84 585.899 C 1505.17 585.615 1505.52 585.362 1505.85 585.082 C 1516.32 576.15 1528.97 569.137 1540.55 561.643 C 1560.02 548.834 1579.62 536.233 1599.36 523.842 z"/>
<path transform="translate(0,0)" fill="rgb(49,120,92)" d="M 1599.36 523.842 L 1599.79 524.03 C 1605.2 526.389 1609.54 529.674 1614.22 533.202 C 1613.58 535.221 1612.55 537.527 1612.28 539.608 C 1613.62 554.534 1607.71 572.671 1604.97 587.477 C 1600.45 611.978 1595.26 637.055 1592.37 661.742 C 1586.91 691.425 1582.58 721.419 1576.69 750.993 L 1575.71 751.041 C 1562.38 764.405 1547.6 776.507 1533.3 788.82 L 1533.57 789.585 C 1539.29 805.207 1573.79 877.094 1573.28 886.499 C 1567.49 896.36 1558.18 904.959 1550.5 913.415 L 1512.72 954.974 L 1459.51 1013.47 C 1450.13 1023.8 1441.04 1034.83 1431.01 1044.49 C 1417.64 1043.49 1404.27 1042.38 1390.92 1041.16 C 1401.06 1030.58 1409.93 1018.09 1419.24 1006.73 L 1470.29 945.274 L 1508.67 899.208 C 1514.45 892.175 1521.28 885.059 1525.87 877.199 L 1526.23 876.901 C 1526.4 876.278 1526.78 875.678 1526.74 875.032 C 1526.56 871.455 1461.3 711.198 1454.78 696.069 C 1461.68 685.302 1472.17 675.08 1480.32 665.008 C 1485.46 652.135 1498.95 591.053 1504.84 585.899 C 1505.17 585.615 1505.52 585.362 1505.85 585.082 C 1516.32 576.15 1528.97 569.137 1540.55 561.643 C 1560.02 548.834 1579.62 536.233 1599.36 523.842 z"/>
<path transform="translate(0,0)" fill="rgb(222,189,166)" d="M 1599.36 523.842 L 1599.79 524.03 C 1605.2 526.389 1609.54 529.674 1614.22 533.202 C 1613.58 535.221 1612.55 537.527 1612.28 539.608 C 1613.62 554.534 1607.71 572.671 1604.97 587.477 C 1600.45 611.978 1595.26 637.055 1592.37 661.742 C 1579.8 662.02 1567.32 663.764 1554.85 665.237 C 1549.46 677.41 1544.55 691.641 1537.45 702.877 C 1527.03 710.351 1516.67 717.905 1506.37 725.538 C 1497 705.716 1489.33 685.022 1480.32 665.008 C 1485.46 652.135 1498.95 591.053 1504.84 585.899 C 1505.17 585.615 1505.52 585.362 1505.85 585.082 C 1516.32 576.15 1528.97 569.137 1540.55 561.643 C 1560.02 548.834 1579.62 536.233 1599.36 523.842 z"/>
<path transform="translate(0,0)" fill="rgb(80,175,138)" d="M 1612.28 539.608 C 1613.62 554.534 1607.71 572.671 1604.97 587.477 C 1600.45 611.978 1595.26 637.055 1592.37 661.742 C 1579.8 662.02 1567.32 663.764 1554.85 665.237 L 1555.02 663.329 C 1561.83 653.705 1566.29 640.648 1571.12 629.856 C 1579.1 612.039 1587.63 594.272 1594.69 576.07 C 1601.28 564.34 1605.83 551.492 1612.28 539.608 z"/>
<path transform="translate(0,0)" fill="rgb(139,101,79)" d="M 1594.69 576.07 C 1587.63 594.272 1579.1 612.039 1571.12 629.856 C 1566.29 640.648 1561.83 653.705 1555.02 663.329 C 1554.36 645.713 1554.9 627.902 1554.9 610.265 C 1568.61 599.624 1581.49 587.385 1594.69 576.07 z"/>
<path transform="translate(0,0)" fill="rgb(139,101,79)" d="M 1516.68 749.9 C 1536.32 750.084 1556.1 750.075 1575.71 751.041 C 1562.38 764.405 1547.6 776.507 1533.3 788.82 C 1526.68 776.649 1521.79 762.786 1516.68 749.9 z"/>
<path transform="translate(0,0)" fill="rgb(139,101,79)" d="M 1506.37 725.538 C 1516.67 717.905 1527.03 710.351 1537.45 702.877 C 1530.76 718.609 1523.04 733.937 1516.78 749.845 C 1512.73 741.987 1509.64 733.741 1506.37 725.538 z"/>
<path transform="translate(0,0)" fill="rgb(89,118,57)" d="M 1215.57 869.204 L 1217 868.827 C 1228.16 878.045 1237.92 890.554 1247.92 901.16 C 1268.01 922.474 1288.41 943.552 1308.2 965.133 C 1316.18 962.665 1324.09 958.851 1331.86 955.719 L 1379.21 936.609 L 1525.87 877.199 C 1521.28 885.059 1514.45 892.175 1508.67 899.208 L 1470.29 945.274 L 1419.24 1006.73 C 1409.93 1018.09 1401.06 1030.58 1390.92 1041.16 C 1371.53 1039 1352.25 1034.96 1332.91 1032.21 C 1313.22 1029.4 1293.62 1026.17 1273.97 1023.18 C 1263.12 1021.53 1252.03 1020.52 1241.3 1018.23 L 1240.82 1016.15 C 1237.2 999.389 1234.8 982.416 1231.95 965.516 L 1215.57 869.204 z"/>
<path transform="translate(0,0)" fill="rgb(154,193,107)" d="M 1196 750.726 C 1226.52 755.543 1255.67 769.161 1286.07 774.921 C 1312.37 782.788 1347.46 790.446 1372 799.92 C 1360.44 832.552 1347.13 864.743 1334.68 897.067 C 1326 919.593 1318.28 943.261 1308.2 965.133 C 1288.41 943.552 1268.01 922.474 1247.92 901.16 C 1237.92 890.554 1228.16 878.045 1217 868.827 L 1215.57 869.204 C 1212.6 858.641 1211.99 846.716 1210.08 835.856 C 1205.12 807.674 1199.52 779.112 1196 750.726 z"/>
<path transform="translate(0,0)" fill="rgb(31,31,31)" fill-opacity="0.0901961" d="M 757.278 1953.21 C 757.765 1950.61 758.52 1948.46 759.48 1946.02 C 763.034 1943.61 866.961 1932.3 878.015 1932.02 C 889.212 1931.73 971.922 1936.53 978.133 1939.52 C 979.609 1940.24 981.893 1943.11 983.18 1944.33 C 983.271 1959.64 982.663 1975.39 983.873 1990.64 C 1069.19 1990.29 1154.69 1989.53 1239.99 1990.58 C 1240.08 1980.21 1238.93 1967.88 1240.8 1957.85 C 1242 1965.34 1241.59 1973.29 1241.62 1980.89 C 1241.92 1975.67 1241.34 1964.21 1245.11 1960.43 L 1246.48 1962.37 C 1248.41 1962.31 1250.06 1962.65 1251.66 1961.49 L 1249.61 1959.6 C 1265.45 1956.1 1298.14 1961.85 1315.52 1963.13 C 1372.72 1967.35 1430.13 1970.47 1487.25 1975.52 C 1508.56 1977.41 1529.9 1979.01 1551.19 1981.11 C 1563.71 1982.35 1577.14 1985.08 1589.67 1984.39 C 1588.41 1985.56 1582 1986.27 1580.01 1986.19 C 1577.66 1986.1 1576.38 1985.45 1574.55 1984.06 L 1574.16 1985.43 C 1575.95 1987.23 1577.05 1987.23 1579.49 1987.29 C 1581.68 1987.35 1583.91 1987.2 1586.1 1987.1 L 1586.55 1987.55 C 1580.43 1988.77 1575.16 1987.7 1569.11 1987.96 C 1559.35 1988.37 1548.93 1989.68 1539.17 1990.73 C 1484.13 1996.64 1429.09 2000.53 1373.89 2004.73 L 939.852 2039.7 C 925.07 2040.93 850.955 2044.43 843.54 2048 L 836.072 2048 C 834.307 2046.6 832.953 2046.24 830.769 2045.94 C 812.546 2043.42 793.79 2042.84 775.454 2040.86 L 634.568 2025.2 C 617.934 2023.43 597.03 2024.73 581.309 2019.2 L 582.701 2018.48 C 579.84 2017.07 577.872 2015.53 576.21 2012.76 C 576.017 2012.44 575.856 2012.1 575.679 2011.77 C 573.474 2013.57 572.847 2014.69 571.913 2017.37 L 574.502 2019.55 C 550.323 2015.29 525.725 2013.69 501.321 2011.22 C 484.677 2009.54 468.143 2006.91 451.507 2005.22 C 436.657 2003.7 379.941 2000.14 369.584 1994.55 C 371.494 1991.96 373.469 1991.02 376.472 1990.14 C 384.837 1987.69 393.904 1986.4 402.542 1985.21 C 426.675 1981.92 450.975 1980.62 475.124 1977.67 L 553.521 1968.76 C 558.521 1968.24 566.104 1966.22 570.923 1966.74 C 571.936 1966.85 572.241 1967.1 573.028 1967.55 L 573.779 1972.18 L 573.872 2009.77 L 697.903 2009.72 C 719.89 2009.72 742.101 2010.36 764.055 2009.53 C 764.029 1997.91 764.456 1986.04 763.691 1974.46 C 762.26 1967.26 759.569 1960.18 757.278 1953.21 z"/>
<path transform="translate(0,0)" fill="rgb(194,151,123)" d="M 1614.22 533.202 L 1615.17 533.233 C 1625.06 535.748 1667.14 534.743 1671.9 539.454 C 1672.13 541.745 1672.33 543.997 1672.4 546.3 L 1667.88 644.537 C 1667.02 663.985 1667.06 683.618 1665.22 702.996 L 1607.31 734.137 C 1597.19 739.6 1586.31 744.74 1576.69 750.993 C 1582.58 721.419 1586.91 691.425 1592.37 661.742 C 1595.26 637.055 1600.45 611.978 1604.97 587.477 C 1607.71 572.671 1613.62 554.534 1612.28 539.608 C 1612.55 537.527 1613.58 535.221 1614.22 533.202 z"/>
<path transform="translate(0,0)" fill="rgb(49,120,92)" d="M 1761.06 270.914 L 1762.86 271.719 C 1762.81 280.563 1754.45 295.178 1750.88 303.592 L 1720.02 377.755 C 1714.31 391.412 1705.92 406.95 1703.01 421.378 C 1700.84 432.151 1702.34 444.769 1702.68 455.685 C 1703.43 474.346 1703.94 493.016 1704.19 511.69 C 1697.59 517.176 1673.33 534.609 1672.63 541.918 C 1672.49 543.376 1672.44 544.836 1672.4 546.3 C 1672.33 543.997 1672.13 541.745 1671.9 539.454 C 1667.14 534.743 1625.06 535.748 1615.17 533.233 C 1632.74 519.586 1652.35 506.73 1671.21 494.923 C 1670.31 482.216 1662.46 428.495 1666.2 420.939 C 1677.13 397.147 1689.64 374.033 1701.49 350.683 C 1714.72 324.59 1727.44 298.116 1741.33 272.369 C 1747.92 272.226 1754.49 271.503 1761.06 270.914 z"/>
<path transform="translate(0,0)" fill="rgb(80,175,138)" d="M 1741.33 272.369 C 1747.92 272.226 1754.49 271.503 1761.06 270.914 C 1757.97 276.044 1751.63 278.715 1749.15 283.803 C 1735.67 311.426 1724.42 340.761 1712.18 368.986 C 1707.42 379.977 1702.83 395.143 1695.31 404.384 C 1690.48 410.306 1675.9 417.996 1668.55 420.499 C 1667.5 420.855 1667.18 420.843 1666.2 420.939 C 1677.13 397.147 1689.64 374.033 1701.49 350.683 C 1714.72 324.59 1727.44 298.116 1741.33 272.369 z"/>
<path transform="translate(0,0)" fill="rgb(66,95,31)" d="M 1173.29 1189.37 C 1177.23 1193.53 1180.61 1220.33 1180.91 1227.04 C 1168.43 1229.07 1155.94 1231.31 1143.41 1233.02 C 1128.52 1235.08 1113.64 1237.28 1098.79 1239.63 C 1098.64 1239.53 1098.48 1239.43 1098.34 1239.31 C 1094.11 1235.8 1091.85 1208.67 1091.14 1202.26 C 1106.89 1199.25 1122.9 1197.33 1138.69 1194.51 C 1150.23 1192.98 1161.91 1191.77 1173.29 1189.37 z"/>
<path transform="translate(0,0)" fill="rgb(31,31,31)" fill-opacity="0.129412" d="M 574.502 2019.55 L 571.913 2017.37 C 572.847 2014.69 573.474 2013.57 575.679 2011.77 C 575.856 2012.1 576.017 2012.44 576.21 2012.76 C 577.872 2015.53 579.84 2017.07 582.701 2018.48 L 581.309 2019.2 L 574.502 2019.55 z"/>
</svg>